<svg xmlns="http://www.w3.org/2000/svg" viewBox="0 0 960 570">
<rect width="960" height="570" fill="#EAE1CF"/>
<g fill="none" stroke="#C9D2B1" stroke-width="2" opacity=".55">
<path d="M-20 470 C 200 400, 380 500, 620 440 S 880 400, 980 450"/>
<path d="M-20 510 C 210 445, 390 540, 630 485 S 890 445, 980 495"/>
<path d="M700 80 C 780 30, 900 50, 930 120 S 850 230, 760 190 700 130 700 80Z"/>
<path d="M730 100 C 790 65, 875 80, 898 130 S 838 205, 775 176 730 135 730 100Z"/>
</g>
<circle cx="812" cy="118" r="46" fill="#D9A45B" opacity=".85"/>
<!-- plan sheet -->
<g transform="rotate(-4 430 300)">
<rect x="150" y="120" width="560" height="380" rx="14" fill="#FBF7EF"/>
<rect x="150" y="120" width="560" height="380" rx="14" fill="none" stroke="#1B2E24" stroke-opacity=".14" stroke-width="2"/>
<!-- bed curves -->
<path d="M190 430 C 260 330, 380 350, 430 290 S 560 200, 660 220" fill="none" stroke="#8A9B6E" stroke-width="5" stroke-linecap="round"/>
<path d="M190 470 C 280 380, 420 400, 490 330 S 610 260, 672 268" fill="none" stroke="#8A9B6E" stroke-width="3" stroke-dasharray="1 12" stroke-linecap="round"/>
<!-- patio -->
<g fill="#EAE1CF" stroke="#1B2E24" stroke-opacity=".22" stroke-width="1.6">
<rect x="470" y="360" width="52" height="38" rx="4"/><rect x="527" y="360" width="52" height="38" rx="4"/>
<rect x="584" y="360" width="52" height="38" rx="4"/><rect x="498" y="403" width="52" height="38" rx="4"/>
<rect x="555" y="403" width="52" height="38" rx="4"/><rect x="470" y="403" width="23" height="38" rx="4"/>
</g>
<!-- tree symbols -->
<g fill="none" stroke="#2E4A38" stroke-width="3.4">
<circle cx="250" cy="220" r="34"/><circle cx="250" cy="220" r="4" fill="#2E4A38"/>
<circle cx="342" cy="180" r="24"/><circle cx="342" cy="180" r="3.4" fill="#2E4A38"/>
<circle cx="608" cy="300" r="20"/><circle cx="608" cy="300" r="3" fill="#2E4A38"/>
</g>
<g fill="#8A9B6E">
<circle cx="420" cy="238" r="9"/><circle cx="448" cy="252" r="7"/><circle cx="472" cy="236" r="8"/>
<circle cx="330" cy="300" r="8"/><circle cx="356" cy="315" r="6.4"/><circle cx="305" cy="318" r="6.4"/>
</g>
<!-- boulders -->
<g fill="#C9D2B1" stroke="#2E4A38" stroke-width="2.4">
<path d="M540 168 l26 -10 22 12 -6 18 -32 4z"/>
<path d="M585 190 l17 -7 14 9 -5 12 -21 2z"/>
</g>
<!-- north arrow -->
<g transform="translate(662 152)">
<circle r="22" fill="none" stroke="#A34A22" stroke-width="2.6"/>
<path d="M0 -14 L7 8 L0 3 L-7 8 Z" fill="#A34A22"/>
</g>
<!-- title block -->
<rect x="190" y="140" width="150" height="4" rx="2" fill="#1B2E24" opacity=".65"/>
<rect x="190" y="152" width="96" height="4" rx="2" fill="#1B2E24" opacity=".28"/>
</g>
<!-- pencil -->
<g transform="rotate(24 700 470)">
<rect x="560" y="452" width="216" height="26" rx="6" fill="#D9A45B"/>
<rect x="560" y="452" width="216" height="9" rx="4" fill="#C4622D" opacity=".55"/>
<path d="M776 452 l34 13 -34 13z" fill="#FBF7EF"/>
<path d="M800 461 l10 4 -10 4z" fill="#1B2E24"/>
<rect x="546" y="452" width="16" height="26" rx="5" fill="#C4622D"/>
</g>
<!-- sage sprig -->
<g transform="translate(96 458)">
<path d="M0 60 C 10 20, 40 -10, 88 -22" fill="none" stroke="#2E4A38" stroke-width="4" stroke-linecap="round"/>
<g fill="#8A9B6E">
<ellipse cx="26" cy="16" rx="17" ry="7.5" transform="rotate(-42 26 16)"/>
<ellipse cx="52" cy="-2" rx="17" ry="7.5" transform="rotate(-32 52 -2)"/>
<ellipse cx="80" cy="-16" rx="16" ry="7" transform="rotate(-22 80 -16)"/>
<ellipse cx="14" cy="38" rx="15" ry="6.6" transform="rotate(-56 14 38)"/>
</g>
</g>
</svg>
