<svg xmlns="http://www.w3.org/2000/svg" viewBox="0 0 960 570">
<rect width="960" height="570" fill="#EAE1CF"/>
<circle cx="790" cy="120" r="52" fill="#D9A45B" opacity=".9"/>
<!-- hills + pines -->
<path d="M-20 330 C 160 270, 330 300, 520 285 S 830 255, 980 300 L980 570 L-20 570Z" fill="#C9D2B1" opacity=".7"/>
<g fill="#2E4A38">
<path d="M120 300 l26 -64 26 64 -18 0 0 20 -16 0 0 -20z"/>
<path d="M175 306 l20 -48 20 48 -14 0 0 16 -12 0 0 -16z"/>
<path d="M840 292 l24 -58 24 58 -17 0 0 18 -14 0 0 -18z"/>
</g>
<!-- patio in soft perspective -->
<g>
<path d="M110 570 L 300 380 L 760 380 L 930 570 Z" fill="#FBF7EF"/>
<g fill="#EAE1CF" stroke="#1B2E24" stroke-opacity=".16" stroke-width="2">
<path d="M300 380 L 760 380 L 782 405 L 285 405 Z" fill="#F4EEE3"/>
<path d="M285 405 L 782 405 L 808 434 L 268 434 Z"/>
<path d="M268 434 L 808 434 L 838 468 L 248 468 Z" fill="#F4EEE3"/>
<path d="M248 468 L 838 468 L 872 506 L 226 506 Z"/>
<path d="M226 506 L 872 506 L 912 550 L 202 550 Z" fill="#F4EEE3"/>
<path d="M202 550 L 912 550 L 930 570 L 184 570 Z"/>
</g>
<g stroke="#1B2E24" stroke-opacity=".12" stroke-width="2">
<path d="M420 380 L 385 570"/><path d="M540 380 L 545 570"/><path d="M660 380 L 705 570"/>
</g>
</g>
<!-- fire bowl -->
<g>
<ellipse cx="520" cy="472" rx="128" ry="26" fill="#1B2E24" opacity=".16"/>
<path d="M415 420 a105 46 0 0 0 210 0 z" fill="#1B2E24"/>
<ellipse cx="520" cy="420" rx="105" ry="24" fill="#20302A"/>
<ellipse cx="520" cy="420" rx="86" ry="18" fill="#12211A"/>
<!-- flames -->
<path d="M520 330 c 26 26, 30 44, 12 62 -8 8, -26 10, -34 -2 -12 -18, -4 -40, 22 -60Z" fill="#C4622D"/>
<path d="M523 356 c 14 16, 15 27, 5 37 -5 5, -15 6, -20 -1 -7 -11, -2 -22, 15 -36Z" fill="#D9A45B"/>
<path d="M478 372 c 12 8, 14 20, 5 30 -6 6, -16 4, -19 -3 -4 -11, 2 -20, 14 -27Z" fill="#C4622D" opacity=".85"/>
<path d="M562 370 c 10 10, 11 22, 2 30 -6 5, -14 3, -17 -4 -3 -10, 3 -18, 15 -26Z" fill="#D9A45B" opacity=".9"/>
</g>
<!-- stacked wall left -->
<g fill="#8A9B6E" stroke="#2E4A38" stroke-width="2.4">
<rect x="60" y="470" width="96" height="30" rx="12"/>
<rect x="80" y="438" width="86" height="30" rx="12" fill="#C9D2B1"/>
<rect x="68" y="406" width="76" height="30" rx="12"/>
</g>
</svg>
