<svg xmlns="http://www.w3.org/2000/svg" viewBox="0 0 560 470" role="img" aria-label="Map of the Sage and Stone service area in Central Oregon">
<rect width="560" height="470" rx="20" fill="#F4EEE3"/>
<g fill="none" stroke="#C9D2B1" stroke-width="1.6" opacity=".7">
<path d="M-10 380 C 120 330, 260 400, 400 350 S 540 320, 570 350"/>
<path d="M-10 420 C 130 372, 270 440, 410 392 S 545 360, 570 390"/>
<path d="M420 80 C 480 50, 540 70, 552 110 S 500 190, 448 160 420 120 420 80Z"/>
</g>
<!-- Cascades -->
<g>
<path d="M30 150 L64 92 L98 150Z" fill="#8A9B6E"/>
<path d="M58 98 L64 92 L71 99 L64 104Z" fill="#FBF7EF"/>
<path d="M70 190 L100 140 L130 190Z" fill="#8A9B6E"/>
<path d="M95 145 L100 140 L106 146 L100 151Z" fill="#FBF7EF"/>
<path d="M34 230 L66 176 L98 230Z" fill="#8A9B6E"/>
<path d="M61 181 L66 176 L72 182 L66 187Z" fill="#FBF7EF"/>
<path d="M76 300 L114 240 L152 300Z" fill="#8A9B6E"/>
<path d="M108 246 L114 240 L121 247 L114 252Z" fill="#FBF7EF"/>
<text x="36" y="330" font-family="Arial, Helvetica, sans-serif" font-size="12" font-style="italic" fill="#48664F">Cascade Range</text>
</g>
<!-- Highway 97 -->
<path d="M310 10 C 300 90, 316 150, 302 210 C 290 264, 296 330, 282 460" fill="none" stroke="#D9C9A8" stroke-width="10" stroke-linecap="round"/>
<path d="M310 10 C 300 90, 316 150, 302 210 C 290 264, 296 330, 282 460" fill="none" stroke="#A34A22" stroke-width="2" stroke-dasharray="10 10" opacity=".7"/>
<g transform="translate(322 52)">
<rect x="-13" y="-15" width="26" height="30" rx="6" fill="#FBF7EF" stroke="#1B2E24" stroke-width="1.6"/>
<text x="0" y="6" text-anchor="middle" font-family="Arial, Helvetica, sans-serif" font-size="13" font-weight="700" fill="#1B2E24">97</text>
</g>
<!-- Deschutes river -->
<path d="M258 460 C 268 400, 244 360, 258 310 C 270 268, 250 240, 256 200 C 262 168, 252 140, 258 100" fill="none" stroke="#6E9490" stroke-width="5" stroke-linecap="round" opacity=".8"/>
<text x="196" y="392" font-family="Arial, Helvetica, sans-serif" font-size="11" font-style="italic" fill="#6E9490" transform="rotate(-72 206 392)">Deschutes River</text>
<!-- towns -->
<g font-family="Arial, Helvetica, sans-serif" font-size="14" fill="#1B2E24">
<g><circle cx="196" cy="118" r="7" fill="#2E4A38"/><text x="182" y="100">Sisters</text></g>
<g><circle cx="330" cy="130" r="7" fill="#2E4A38"/><text x="344" y="135">Redmond</text></g>
<g><circle cx="452" cy="146" r="7" fill="#2E4A38"/><text x="425" y="128">Prineville</text></g>
<g><circle cx="404" cy="196" r="6" fill="#2E4A38"/><text x="368" y="220">Powell Butte</text></g>
<g><circle cx="262" cy="196" r="6" fill="#2E4A38"/><text x="204" y="201">Tumalo</text></g>
<g>
<circle cx="296" cy="252" r="17" fill="#C4622D" opacity=".25"/>
<circle cx="296" cy="252" r="9" fill="#C4622D"/>
<text x="316" y="258" font-size="17" font-weight="700">Bend</text>
</g>
<g><circle cx="270" cy="330" r="7" fill="#2E4A38"/><text x="286" y="335">Sunriver</text></g>
<g><circle cx="252" cy="420" r="7" fill="#2E4A38"/><text x="268" y="425">La Pine</text></g>
</g>
<!-- compass -->
<g transform="translate(508 396)">
<circle r="24" fill="#FBF7EF" stroke="#1B2E24" stroke-opacity=".2" stroke-width="1.6"/>
<path d="M0 -15 L6 9 L0 4 L-6 9Z" fill="#A34A22"/>
<text x="0" y="-30" text-anchor="middle" font-family="Arial, Helvetica, sans-serif" font-size="12" font-weight="700" fill="#1B2E24">N</text>
</g>
<!-- legend -->
<g transform="translate(30 30)" font-family="Arial, Helvetica, sans-serif">
<circle cx="8" cy="0" r="8" fill="#C4622D"/>
<text x="24" y="5" font-size="12.5" font-weight="700" fill="#1B2E24">Home base - Bend</text>
<circle cx="8" cy="26" r="6" fill="#2E4A38"/>
<text x="24" y="31" font-size="12.5" fill="#1B2E24">Daily service routes</text>
</g>
</svg>
